<?xml version="1.0" encoding="UTF-8"?>
<!DOCTYPE svg PUBLIC "-//W3C//DTD SVG 1.1//EN" "http://www.w3.org/Graphics/SVG/1.1/DTD/svg11.dtd">
<!-- Creator: CorelDRAW X8 -->
<svg xmlns="http://www.w3.org/2000/svg" xml:space="preserve" width="210mm" height="210mm" version="1.1" style="shape-rendering:geometricPrecision; text-rendering:geometricPrecision; image-rendering:optimizeQuality; fill-rule:evenodd; clip-rule:evenodd"
viewBox="0 0 21000 21000"
 xmlns:xlink="http://www.w3.org/1999/xlink">
 <defs>
  <style type="text/css">
   <![CDATA[
    .fil0 {fill:#0032A1}
    .fil1 {fill:#00EDCF}
   ]]>
  </style>
 </defs>
 <g id="Capa_x0020_1">
  <metadata id="CorelCorpID_0Corel-Layer"/>
  <g id="_2550778989584">
   <path class="fil0" d="M4608 16686l0 -889 -80 0 0 889 80 0zm284 -354c0,-111 55,-213 177,-213 100,0 162,63 162,170l0 397 73 0 0 -385c0,-71 -16,-249 -217,-249 -80,0 -149,35 -192,112l-3 -3 -3 -91 -77 0c3,42 7,91 7,139l0 477 73 0 0 -354zm644 190c0,83 -8,182 147,182 25,0 52,-5 75,-11l0 -63c-19,6 -42,7 -64,7 -56,0 -85,-31 -84,-87l0 -412 140 0 0 -68 -140 0 0 -163 -74 32 0 131 -122 0 0 68 122 0 0 384zm858 -127c0,-192 -75,-343 -281,-343 -183,0 -275,159 -275,326 0,168 86,326 270,326 148,0 240,-67 278,-214l-77 0c-18,84 -91,147 -178,147 -151,0 -211,-110 -213,-242l476 0zm-474 -67c10,-108 74,-209 194,-209 128,0 191,90 200,209l-394 0zm693 -12c3,-118 60,-197 170,-197 14,0 30,4 45,5l0 -71c-25,-1 -49,-2 -74,-1 -61,2 -116,47 -138,109l-3 0 -3 -91 -76 0c2,42 7,91 6,139l0 477 73 0 0 -370zm392 16c0,-111 55,-213 176,-213 101,0 162,63 162,170l0 397 74 0 0 -385c0,-71 -16,-249 -217,-249 -80,0 -150,35 -193,112l-2 -3 -4 -91 -76 0c2,42 6,91 6,139l0 477 74 0 0 -354zm617 182c0,-154 218,-135 322,-138 8,128 -23,261 -184,261 -75,0 -138,-39 -138,-123zm322 -206c-89,5 -196,-7 -278,28 -74,31 -124,95 -124,178 0,120 91,190 205,190 83,0 165,-49 192,-100l4 -9 2 0 3 91 76 0c-3,-42 -7,-91 -6,-139l0 -292c2,-141 -82,-203 -219,-203 -117,0 -212,48 -230,174l78 0c10,-83 74,-107 151,-107 87,0 139,32 146,133l0 56zm717 -49c-7,-131 -110,-207 -236,-207 -183,0 -275,159 -275,326 0,168 86,326 270,326 140,0 221,-70 241,-211l-80 0c-6,85 -73,144 -168,144 -113,0 -183,-119 -183,-260 0,-140 70,-258 183,-258 102,0 162,46 168,140l80 0zm128 -189l0 616 74 0 0 -616 -74 0zm80 -270l-86 0 0 92 86 0 0 -92zm625 578c0,114 -59,259 -208,259 -148,0 -207,-145 -207,-259 0,-114 59,-259 207,-259 149,0 208,145 208,259zm-208 -326c-196,0 -287,164 -287,326 0,162 91,326 287,326 197,0 287,-164 287,-326 0,-162 -90,-326 -287,-326zm48 -233l-111 175 54 0 155 -175 -98 0zm448 513c0,-111 55,-213 177,-213 100,0 161,63 161,170l0 397 74 0 0 -385c0,-71 -16,-249 -217,-249 -80,0 -150,35 -193,112l-2 -3 -4 -91 -76 0c3,42 6,91 6,139l0 477 74 0 0 -354zm889 280l0 -738 125 0c252,-7 405,108 405,369 0,223 -102,369 -351,369l-179 0zm-80 -812l0 886 239 0c291,0 457,-150 457,-443 0,-293 -166,-443 -457,-443l-239 0zm1305 578c0,114 -59,259 -207,259 -148,0 -207,-145 -207,-259 0,-114 59,-259 207,-259 148,0 207,145 207,259zm-207 -326c-196,0 -287,164 -287,326 0,162 91,326 287,326 196,0 287,-164 287,-326 0,-162 -91,-326 -287,-326zm491 18l-76 0c2,42 6,91 6,139l0 477 73 0 0 -354c0,-111 56,-213 177,-213 101,0 162,63 162,170l0 397 74 0 0 -354c0,-111 55,-213 176,-213 101,0 162,63 162,170l0 397 74 0 0 -385c0,-71 -16,-249 -217,-249 -96,0 -167,62 -213,135 -27,-81 -103,-135 -200,-135 -79,0 -149,35 -192,112l-3 -3 -3 -91zm1006 0l0 616 73 0 0 -616 -73 0zm79 -270l-86 0 0 92 86 0 0 -92zm643 459c-6,-131 -109,-207 -235,-207 -183,0 -275,159 -275,326 0,168 86,326 270,326 140,0 220,-70 240,-211l-80 0c-6,85 -72,144 -168,144 -112,0 -182,-119 -182,-260 0,-140 70,-258 182,-258 102,0 162,46 168,140l80 0zm129 -189l0 616 74 0 0 -616 -74 0zm80 -270l-86 0 0 92 86 0 0 -92zm249 0l-74 0 0 886 74 0 0 -886zm181 270l0 616 74 0 0 -616 -74 0zm80 -270l-86 0 0 92 86 0 0 -92zm200 714c0,-154 219,-135 323,-138 7,128 -24,261 -184,261 -75,0 -139,-39 -139,-123zm323 -206c-90,5 -196,-7 -279,28 -73,31 -124,95 -124,178 0,120 91,190 205,190 84,0 166,-49 193,-100l4 -9 2 0 2 91 76 0c-2,-42 -7,-91 -6,-139l0 -292c3,-141 -82,-203 -218,-203 -118,0 -212,48 -231,174l79 0c10,-83 74,-107 151,-107 87,0 138,32 146,133l0 56zm321 8c3,-118 60,-197 169,-197 15,0 31,4 46,5l0 -71c-25,-1 -49,-2 -74,-1 -61,2 -116,47 -138,109l-3 0 -3 -91 -77 0c3,42 8,91 7,139l0 477 73 0 0 -370zm319 -246l0 616 74 0 0 -616 -74 0zm80 -270l-86 0 0 92 86 0 0 -92zm200 714c0,-154 218,-135 323,-138 7,128 -24,261 -184,261 -75,0 -139,-39 -139,-123zm323 -206c-90,5 -197,-7 -279,28 -73,31 -124,95 -124,178 0,120 91,190 205,190 83,0 166,-49 193,-100l3 -9 3 0 2 91 76 0c-2,-42 -7,-91 -6,-139l0 -292c3,-141 -82,-203 -218,-203 -118,0 -212,48 -231,174l79 0c10,-83 73,-107 151,-107 87,0 138,32 146,133l0 56z"/>
   <path class="fil0" d="M18330 13681c0,343 -113,673 -493,673 -355,0 -504,-343 -504,-669 0,-343 129,-666 504,-666 372,0 493,323 493,662zm8 1049l544 0 0 -2881 -573 0 0 1049 -8 0c-129,-206 -371,-311 -617,-311 -613,0 -924,521 -924,1081 0,577 307,1118 936,1118 266,0 500,-97 634,-323l8 0 0 267z"/>
   <path class="fil0" d="M16497 12644l-573 0 0 1093c0,424 -133,597 -443,597 -267,0 -368,-169 -368,-512l0 -1178 -572 0 0 1283c0,516 153,859 762,859 242,0 492,-113 638,-347l12 0 0 291 544 0 0 -2086z"/>
   <polygon class="fil0" points="13600,14730 14173,14730 14173,11849 13600,11849 "/>
   <path class="fil0" d="M11901 13285c20,-226 161,-314 379,-314 202,0 371,36 371,282 0,234 -327,222 -678,274 -355,49 -710,162 -710,634 0,427 315,625 710,625 255,0 521,-69 702,-258 4,68 21,137 41,202l581 0c-53,-85 -73,-275 -73,-464l0 -1086c0,-500 -500,-593 -916,-593 -468,0 -948,162 -980,698l573 0zm750 638c0,125 -16,480 -464,480 -185,0 -351,-53 -351,-266 0,-210 162,-271 339,-307 178,-32 379,-36 476,-121l0 214z"/>
   <path class="fil0" d="M8628 13773c-8,711 589,1025 1226,1025 783,0 1198,-395 1198,-924 0,-653 -645,-786 -855,-839 -722,-186 -859,-214 -859,-436 0,-242 234,-326 435,-326 303,0 549,88 569,435l614 0c0,-665 -553,-928 -1154,-928 -521,0 -1078,283 -1078,872 0,540 432,706 860,819 424,113 855,165 855,476 0,294 -339,359 -561,359 -339,0 -637,-149 -637,-533l-613 0z"/>
   <path class="fil0" d="M7160 14730l573 0 0 -940c0,-368 145,-670 565,-670 68,0 153,8 205,20l0 -533c-36,-12 -84,-20 -125,-20 -278,0 -560,182 -665,444l-8 0 0 -387 -545 0 0 2086zm-1683 -1445c20,-226 161,-314 379,-314 202,0 371,36 371,282 0,234 -327,222 -678,274 -355,49 -710,162 -710,634 0,427 315,625 710,625 255,0 521,-69 702,-258 4,68 21,137 41,202l581 0c-53,-85 -73,-275 -73,-464l0 -1086c0,-500 -500,-593 -916,-593 -468,0 -948,162 -980,698l573 0zm750 638c0,125 -16,480 -464,480 -185,0 -351,-53 -351,-266 0,-210 162,-271 339,-307 178,-32 379,-36 476,-121l0 214z"/>
   <path class="fil0" d="M2751 12382l452 0c629,0 831,371 831,952 0,637 -351,863 -718,863l-565 0 0 -1815zm-633 2348l1242 0c880,0 1308,-622 1308,-1457 0,-956 -561,-1424 -1308,-1424l-1242 0 0 2881z"/>
   <path class="fil1" d="M11720 8911c66,0 120,-54 120,-119l0 -1225 516 0c50,0 93,-30 111,-76 19,-47 7,-98 -30,-132 -963,-895 -988,-919 -1855,-1725 -23,-22 -53,-33 -82,-33 -29,0 -59,11 -81,33l-1856 1725c-37,34 -48,85 -30,132 18,46 61,76 111,76l516 0 0 0 0 1225c0,65 54,119 120,119 813,0 1627,0 2440,0zm-1928 -1764l501 0 0 -503 0 -1c0,-3 3,-7 7,-7l405 0 1 0c3,0 7,4 7,7l0 504 500 0 0 0c4,0 7,3 7,7l0 405 0 1c0,4 -3,7 -7,7l-500 0 0 503 0 0c0,4 -4,7 -7,7l-406 0 0 0c-4,0 -7,-3 -7,-7l0 -503 -501 0 0 0c-4,0 -7,-3 -7,-7l0 -406 0 0c0,-4 3,-7 7,-7z"/>
   <path class="fil1" d="M10500 10533c-1719,0 -3118,-1399 -3118,-3119 0,-1719 1399,-3118 3118,-3118 1720,0 3118,1399 3118,3118 0,1720 -1398,3119 -3118,3119zm0 -5774l0 0c-1464,0 -2655,1191 -2655,2655 0,1465 1191,2656 2655,2656 1464,0 2656,-1191 2656,-2656 0,-1464 -1192,-2655 -2656,-2655z"/>
  </g>
 </g>
</svg>
