<?xml version="1.0" encoding="UTF-8"?>
<!DOCTYPE svg PUBLIC "-//W3C//DTD SVG 1.1//EN" "http://www.w3.org/Graphics/SVG/1.1/DTD/svg11.dtd">
<!-- Creator: CorelDRAW X8 -->
<svg xmlns="http://www.w3.org/2000/svg" xml:space="preserve" width="210mm" height="210mm" version="1.1" style="shape-rendering:geometricPrecision; text-rendering:geometricPrecision; image-rendering:optimizeQuality; fill-rule:evenodd; clip-rule:evenodd"
viewBox="0 0 21000 21000"
 xmlns:xlink="http://www.w3.org/1999/xlink">
 <defs>
  <style type="text/css">
   <![CDATA[
    .fil0 {fill:#0032A1}
   ]]>
  </style>
 </defs>
 <g id="Capa_x0020_1">
  <metadata id="CorelCorpID_0Corel-Layer"/>
  <path class="fil0" d="M1807 11142l0 -1311 -118 0 0 1311 118 0zm419 -523c0,-162 82,-313 261,-313 148,0 239,93 239,250l0 586 108 0 0 -568c0,-105 -23,-367 -320,-367 -117,0 -221,52 -284,165l-4 -4 -5 -134 -112 0c3,62 9,134 9,204l0 704 108 0 0 -523zm951 281c0,123 -13,270 217,270 36,0 76,-8 110,-17l0 -94c-29,9 -61,11 -94,11 -83,0 -127,-45 -125,-128l0 -608 206 0 0 -100 -206 0 0 -241 -108 47 0 194 -181 0 0 100 181 0 0 566zm1265 -186c0,-285 -111,-507 -415,-507 -269,0 -405,235 -405,481 0,248 127,482 398,482 219,0 355,-100 411,-317l-114 0c-27,125 -134,217 -263,217 -222,0 -311,-163 -314,-356l702 0zm-699 -100c15,-159 109,-308 286,-308 188,0 282,132 295,308l-581 0zm1023 -18c3,-174 88,-290 249,-290 22,0 46,6 67,8l0 -105c-36,-2 -72,-4 -108,-2 -91,4 -172,69 -205,161l-3 0 -6 -134 -112 0c4,62 11,134 9,204l0 704 109 0 0 -546zm577 23c0,-162 81,-313 261,-313 148,0 238,93 238,250l0 586 109 0 0 -568c0,-105 -23,-367 -320,-367 -118,0 -221,52 -284,165l-4 -4 -5 -134 -113 0c4,62 9,134 9,204l0 704 109 0 0 -523zm910 270c0,-228 322,-199 476,-204 11,190 -34,385 -271,385 -111,0 -205,-58 -205,-181zm476 -304c-132,7 -289,-11 -410,42 -109,45 -183,139 -183,262 0,177 134,281 302,281 123,0 244,-73 284,-149l5 -13 4 0 4 134 112 0c-4,-61 -11,-134 -9,-204l0 -431c3,-208 -121,-300 -322,-300 -174,0 -313,70 -340,257l115 0c15,-123 109,-158 223,-158 128,0 204,47 215,196l0 83zm1057 -72c-9,-194 -161,-306 -347,-306 -270,0 -406,235 -406,481 0,248 127,482 399,482 206,0 325,-104 354,-312l-117 0c-10,125 -107,212 -248,212 -167,0 -270,-176 -270,-384 0,-206 103,-380 270,-380 150,0 238,67 248,207l117 0zm190 -279l0 908 109 0 0 -908 -109 0zm118 -398l-127 0 0 136 127 0 0 -136zm921 852c0,168 -87,382 -306,382 -219,0 -305,-214 -305,-382 0,-168 86,-382 305,-382 219,0 306,214 306,382zm-306 -481c-289,0 -423,242 -423,481 0,239 134,482 423,482 290,0 424,-243 424,-482 0,-239 -134,-481 -424,-481zm71 -344l-165 259 80 0 230 -259 -145 0zm661 756c0,-162 81,-313 260,-313 148,0 239,93 239,250l0 586 109 0 0 -568c0,-105 -24,-367 -321,-367 -117,0 -220,52 -284,165l-3 -4 -6 -134 -112 0c4,62 9,134 9,204l0 704 109 0 0 -523zm1311 415l0 -1090 185 0c371,-10 597,160 597,545 0,329 -150,545 -518,545l-264 0zm-117 -1198l0 1306 352 0c429,0 674,-220 674,-653 0,-432 -245,-653 -674,-653l-352 0zm1925 852c0,168 -87,382 -306,382 -219,0 -306,-214 -306,-382 0,-168 87,-382 306,-382 219,0 306,214 306,382zm-306 -481c-289,0 -423,242 -423,481 0,239 134,482 423,482 290,0 424,-243 424,-482 0,-239 -134,-481 -424,-481zm724 27l-112 0c4,62 9,134 9,204l0 704 109 0 0 -523c0,-162 81,-313 260,-313 149,0 239,93 239,250l0 586 109 0 0 -523c0,-162 81,-313 260,-313 149,0 239,93 239,250l0 586 109 0 0 -568c0,-105 -24,-367 -321,-367 -141,0 -246,92 -313,199 -40,-120 -152,-199 -295,-199 -117,0 -220,52 -284,165l-3 -4 -6 -134zm1484 0l0 908 109 0 0 -908 -109 0zm118 -398l-127 0 0 136 127 0 0 -136zm948 677c-9,-194 -161,-306 -347,-306 -270,0 -406,235 -406,481 0,248 127,482 398,482 207,0 326,-104 355,-312l-118 0c-9,125 -106,212 -247,212 -167,0 -270,-176 -270,-384 0,-206 103,-380 270,-380 150,0 238,67 247,207l118 0zm190 -279l0 908 109 0 0 -908 -109 0zm118 -398l-127 0 0 136 127 0 0 -136zm367 0l-108 0 0 1306 108 0 0 -1306zm268 398l0 908 109 0 0 -908 -109 0zm118 -398l-127 0 0 136 127 0 0 -136zm295 1053c0,-228 322,-199 476,-204 11,190 -34,385 -271,385 -111,0 -205,-58 -205,-181zm476 -304c-132,7 -290,-11 -411,42 -108,45 -183,139 -183,262 0,177 134,281 303,281 123,0 244,-73 284,-149l5 -13 4 0 3 134 113 0c-4,-61 -11,-134 -9,-204l0 -431c3,-208 -122,-300 -323,-300 -173,0 -313,70 -340,257l116 0c15,-123 109,-158 223,-158 128,0 204,47 215,196l0 83zm474 11c4,-174 89,-290 250,-290 22,0 45,6 67,8l0 -105c-36,-2 -72,-4 -109,-2 -90,4 -172,69 -204,161l-4 0 -5 -134 -112 0c3,62 10,134 9,204l0 704 108 0 0 -546zm471 -362l0 908 108 0 0 -908 -108 0zm117 -398l-126 0 0 136 126 0 0 -136zm296 1053c0,-228 322,-199 475,-204 11,190 -34,385 -271,385 -110,0 -204,-58 -204,-181zm475 -304c-132,7 -289,-11 -410,42 -109,45 -183,139 -183,262 0,177 134,281 302,281 123,0 244,-73 284,-149l6 -13 3 0 4 134 112 0c-4,-61 -11,-134 -9,-204l0 -431c4,-208 -121,-300 -322,-300 -174,0 -313,70 -340,257l116 0c14,-123 108,-158 222,-158 129,0 205,47 215,196l0 83z"/>
 </g>
</svg>
