<?xml version="1.0" encoding="UTF-8"?>
<!DOCTYPE svg PUBLIC "-//W3C//DTD SVG 1.1//EN" "http://www.w3.org/Graphics/SVG/1.1/DTD/svg11.dtd">
<!-- Creator: CorelDRAW X8 -->
<svg xmlns="http://www.w3.org/2000/svg" xml:space="preserve" width="210mm" height="210mm" version="1.1" style="shape-rendering:geometricPrecision; text-rendering:geometricPrecision; image-rendering:optimizeQuality; fill-rule:evenodd; clip-rule:evenodd"
viewBox="0 0 21000 21000"
 xmlns:xlink="http://www.w3.org/1999/xlink">
 <defs>
  <style type="text/css">
   <![CDATA[
    .fil0 {fill:#0032A1}
    .fil1 {fill:#0032A1;fill-rule:nonzero}
   ]]>
  </style>
 </defs>
 <g id="Capa_x0020_1">
  <metadata id="CorelCorpID_0Corel-Layer"/>
  <g id="_2550785079648">
   <g>
    <polygon class="fil0" points="18354,11165 18354,11165 18345,11160 18065,11011 18065,11011 17942,10946 17569,10748 17569,10748 17353,10633 17353,10633 17012,10451 17106,10788 17106,10788 17128,10867 17252,11312 17252,11312 17302,11494 17465,12079 17632,11835 17632,11835 17769,11635 18172,12138 18408,11948 18074,11532 18074,11532 18005,11446 18504,11245 "/>
    <path class="fil0" d="M15795 11011l642 0c40,274 108,519 203,694 -370,-100 -677,-356 -845,-694zm-139 -593c0,-128 18,-252 52,-370l703 0c-10,122 -15,246 -15,370 0,125 5,249 15,370l-703 0c-34,-117 -52,-241 -52,-370zm984 -1286c-95,174 -163,420 -203,693l-642 0c168,-337 475,-593 845,-693zm114 300c80,-239 176,-347 235,-347 59,0 155,108 234,347 39,116 70,249 92,393l-653 0c23,-144 54,-277 92,-393zm1428 393l-641 0c-40,-273 -108,-519 -204,-693 371,100 677,356 845,693zm-1193 1926c-59,0 -155,-107 -235,-346 -38,-116 -69,-249 -92,-394l342 0 -62 -223 -307 0c-11,-119 -16,-243 -16,-370 0,-127 5,-251 16,-370l707 0c11,119 17,243 17,370 0,13 -1,26 -1,39l221 117c2,-52 3,-104 3,-156 0,-124 -5,-248 -16,-370l704 0c34,118 52,242 52,370 0,129 -18,253 -52,370l-289 0 441 235c11,-26 22,-52 31,-79 2,-4 4,-9 5,-14 56,-160 87,-332 87,-512 0,-179 -31,-351 -87,-512 -1,-4 -3,-9 -5,-14 -216,-600 -791,-1030 -1464,-1030 -674,0 -1249,430 -1465,1030 -2,5 -3,10 -5,14 -56,161 -86,333 -86,512 0,180 30,352 86,512 2,5 3,10 5,14 216,600 791,1031 1465,1031 94,0 187,-9 276,-25l-106 -384c-63,127 -126,185 -170,185z"/>
   </g>
   <path class="fil0" d="M9696 9823l11 322c0,10 -11,20 -31,32l-177 0 0 363 177 0c10,0 20,10 31,32l0 895 5 62 369 0 0 -967c2,-14 9,-22 21,-22l301 0c14,0 31,-114 53,-343l0 -20 -354 0c-14,0 -21,-7 -21,-20l0 -251c0,-107 63,-165 188,-177l207 0 0 -311c0,-21 -73,-31 -218,-31l-52 0c-241,0 -396,90 -468,269 -15,38 -28,93 -42,167z"/>
   <polygon class="fil1" points="7003,11067 7003,9772 7179,9772 7179,11067 "/>
   <g>
    <path class="fil0" d="M3257 9379l983 0c356,0 534,188 534,561l0 995c-47,346 -193,519 -435,519l-408 0c-190,0 -391,5 -603,14 -353,0 -560,-112 -620,-335 -17,-124 -27,-312 -27,-561l0 -311c0,-466 38,-700 113,-700 75,-121 230,-182 463,-182zm-802 701l0 0 0 731c0,398 127,664 380,797 114,64 479,89 1096,71 473,0 744,-51 816,-153 159,-127 239,-338 239,-632l0 -940c0,-371 -131,-613 -394,-728l-175 -58 -177 -14 -1025 0c-365,0 -610,178 -732,533 -18,109 -28,240 -28,393z"/>
    <path class="fil0" d="M4253 9759c42,93 94,139 157,139 63,0 115,-46 155,-139 -23,-114 -79,-170 -171,-170 -94,28 -141,85 -141,170z"/>
    <path class="fil0" d="M3721 9996l15 0c203,0 338,107 407,324 9,11 14,44 14,98 -45,290 -185,434 -421,434 -188,0 -324,-93 -408,-280 -12,-15 -23,-62 -30,-140 34,-291 175,-436 423,-436zm-646 436l0 0c0,302 174,511 520,629l281 0c336,-120 504,-335 504,-643l0 -30c0,-174 -89,-337 -267,-489 -121,-85 -247,-127 -377,-127l-15 0c-289,0 -491,150 -605,449 -16,19 -29,90 -41,211z"/>
   </g>
   <polygon class="fil1" points="12840,11067 12840,9772 13016,9772 13016,11067 "/>
  </g>
 </g>
</svg>
