<?xml version="1.0" encoding="UTF-8"?>
<!DOCTYPE svg PUBLIC "-//W3C//DTD SVG 1.1//EN" "http://www.w3.org/Graphics/SVG/1.1/DTD/svg11.dtd">
<!-- Creator: CorelDRAW X8 -->
<svg xmlns="http://www.w3.org/2000/svg" xml:space="preserve" width="210mm" height="210mm" version="1.1" style="shape-rendering:geometricPrecision; text-rendering:geometricPrecision; image-rendering:optimizeQuality; fill-rule:evenodd; clip-rule:evenodd"
viewBox="0 0 21000 21000"
 xmlns:xlink="http://www.w3.org/1999/xlink">
 <defs>
  <style type="text/css">
   <![CDATA[
    .fil0 {fill:#0032A1;fill-rule:nonzero}
   ]]>
  </style>
 </defs>
 <g id="Capa_x0020_1">
  <metadata id="CorelCorpID_0Corel-Layer"/>
  <g id="_2550666014288">
   <path class="fil0" d="M1410 11076m429 26c-140,0 -248,-42 -320,-125 -72,-83 -109,-205 -109,-366 0,-65 8,-124 22,-179 15,-56 37,-108 69,-154 29,-46 72,-83 125,-111 54,-25 119,-38 191,-38 144,0 245,42 306,129 61,87 78,203 50,353l-637 0c0,131 26,229 76,292 50,63 127,94 232,94 108,0 200,-20 278,-61l20 100c-98,44 -198,66 -303,66zm-299 -591l521 0c11,-90 -6,-161 -48,-212 -43,-52 -108,-78 -191,-78 -57,0 -105,13 -148,37 -42,24 -72,55 -90,94 -30,69 -44,122 -44,159z"/>
   <path class="fil0" d="M2348 11076m0 -27l31 -93c87,28 167,41 241,41 144,0 216,-52 216,-155 0,-80 -56,-137 -166,-176 -102,-35 -170,-64 -204,-87 -66,-46 -99,-109 -101,-186 0,-87 27,-152 85,-198 57,-46 136,-68 242,-68 77,0 153,11 225,31l-20 96c-76,-16 -143,-24 -202,-24 -136,0 -205,50 -205,150 0,41 17,74 50,102 32,27 72,48 118,64 47,17 93,35 139,54 46,20 85,48 118,83 32,37 48,83 48,137 0,86 -29,157 -88,207 -61,49 -148,75 -261,75 -103,0 -192,-18 -266,-53z"/>
   <path class="fil0" d="M3077 11076m541 -101l19 90c-57,21 -124,30 -196,30 -94,0 -157,-19 -188,-54 -32,-35 -47,-99 -47,-194l0 -602 -129 0 0 -96 129 0 0 -235 119 -16 0 251 310 0 -18 96 -294 0 0 621c0,40 5,72 16,94 13,26 50,39 109,39 58,0 113,-8 170,-24z"/>
   <path class="fil0" d="M3738 11076m711 -620l0 583c-113,39 -238,60 -377,60 -101,0 -183,-21 -244,-65 -61,-43 -90,-105 -90,-190 0,-54 9,-98 29,-137 21,-37 48,-65 83,-85 36,-20 72,-33 111,-43 39,-9 83,-13 130,-13 77,0 155,10 234,30l0 -133c0,-81 -16,-140 -48,-175 -31,-36 -90,-52 -175,-52 -69,0 -159,15 -270,42l-22 -90c42,-15 96,-28 161,-39 64,-11 116,-17 155,-17 114,0 197,26 247,76 50,50 76,133 76,248zm-124 517l0 -297c-72,-13 -140,-21 -209,-21 -171,0 -256,61 -256,183 0,109 83,165 251,165 79,0 151,-10 214,-30z"/>
   <path class="fil0" d="M4690 11076m0 0l0 -859c155,-61 292,-90 409,-92 116,-2 195,26 240,79 101,-53 216,-79 343,-79 106,0 183,22 235,68 52,46 78,126 78,237l0 646 -115 0 0 -617c0,-86 -18,-146 -53,-179 -37,-33 -97,-50 -180,-50 -94,0 -181,19 -260,56 15,38 22,87 22,144l0 646 -115 0 0 -617c0,-86 -18,-146 -53,-179 -37,-33 -96,-50 -179,-50 -102,0 -187,21 -255,63l0 783 -117 0z"/>
   <path class="fil0" d="M6212 11076m404 26c-142,0 -243,-37 -308,-112 -65,-76 -96,-200 -96,-375 0,-169 35,-292 105,-372 69,-77 172,-116 309,-116 136,0 238,39 305,114 64,76 97,200 97,372 0,168 -35,292 -103,371 -68,79 -172,118 -309,118zm6 -872c-89,0 -159,28 -211,83 -49,58 -75,157 -75,302 0,138 22,236 68,293 46,59 118,89 216,89 190,0 285,-128 285,-382 0,-148 -24,-250 -71,-303 -46,-54 -118,-82 -212,-82z"/>
   <path class="fil0" d="M7194 11076m0 -27l31 -93c87,28 167,41 241,41 144,0 216,-52 216,-155 0,-80 -56,-137 -167,-176 -101,-35 -170,-64 -203,-87 -66,-46 -100,-109 -101,-186 0,-87 27,-152 85,-198 57,-46 136,-68 242,-68 77,0 153,11 225,31l-20 96c-76,-16 -143,-24 -202,-24 -136,0 -205,50 -205,150 0,41 17,74 50,102 32,27 72,48 118,64 47,17 93,35 139,54 46,20 85,48 118,83 32,37 48,83 48,137 0,86 -29,157 -88,207 -61,49 -148,75 -261,75 -103,0 -192,-18 -266,-53z"/>
   <path class="fil0" d="M8181 11076m428 26c-140,0 -247,-42 -319,-125 -73,-83 -109,-205 -109,-366 0,-65 7,-124 22,-179 14,-56 37,-108 68,-154 30,-46 72,-83 126,-111 53,-25 118,-38 190,-38 144,0 246,42 307,129 61,87 77,203 50,353l-638 0c0,131 26,229 76,292 50,63 127,94 233,94 107,0 199,-20 277,-61l20 100c-98,44 -198,66 -303,66zm-299 -591l521 0c11,-90 -6,-161 -48,-212 -43,-52 -107,-78 -190,-78 -58,0 -106,13 -148,37 -43,24 -72,55 -91,94 -29,69 -44,122 -44,159z"/>
   <path class="fil0" d="M9177 11076m0 0l0 -859c159,-61 298,-92 416,-92 105,0 183,22 235,68 51,46 77,126 77,237l0 646 -114 0 0 -617c0,-86 -19,-146 -54,-179 -37,-33 -96,-50 -179,-50 -109,0 -196,21 -264,63l0 783 -117 0z"/>
   <path class="fil0" d="M10330 11076m673 -909l-24 95c-94,-21 -167,-32 -213,-32 -92,0 -166,32 -221,96 -58,65 -85,161 -85,289 0,129 29,225 86,290 58,64 137,96 235,96 78,0 152,-13 222,-37l18 92c-87,31 -170,46 -246,46 -129,0 -236,-40 -319,-120 -83,-81 -126,-203 -126,-367 0,-159 43,-281 126,-364 83,-84 186,-124 307,-124 83,0 162,13 240,40z"/>
   <path class="fil0" d="M11142 11076m712 -620l0 583c-113,39 -239,60 -377,60 -102,0 -183,-21 -244,-65 -61,-43 -91,-105 -91,-190 0,-54 10,-98 30,-137 20,-37 48,-65 83,-85 35,-20 72,-33 111,-43 39,-9 83,-13 129,-13 78,0 155,10 235,30l0 -133c0,-81 -17,-140 -48,-175 -32,-36 -91,-52 -176,-52 -68,0 -159,15 -269,42l-23 -90c43,-15 97,-28 161,-39 65,-11 117,-17 155,-17 115,0 198,26 248,76 50,50 76,133 76,248zm-124 517l0 -297c-72,-13 -141,-21 -209,-21 -172,0 -257,61 -257,183 0,109 83,165 252,165 79,0 151,-10 214,-30z"/>
   <path class="fil0" d="M12036 11076m0 -27l31 -93c87,28 167,41 240,41 145,0 217,-52 217,-155 0,-80 -56,-137 -167,-176 -101,-35 -170,-64 -203,-87 -66,-46 -100,-109 -102,-186 0,-87 28,-152 85,-198 58,-46 137,-68 243,-68 77,0 153,11 225,31l-20 96c-76,-16 -143,-24 -202,-24 -137,0 -205,50 -205,150 0,41 17,74 50,102 31,27 72,48 118,64 46,17 93,35 139,54 46,20 85,48 118,83 31,37 48,83 48,137 0,86 -29,157 -89,207 -61,49 -147,75 -260,75 -104,0 -192,-18 -266,-53z"/>
   <path class="fil0" d="M12791 11076m711 -620l0 583c-113,39 -238,60 -377,60 -101,0 -183,-21 -244,-65 -61,-43 -90,-105 -90,-190 0,-54 9,-98 29,-137 21,-37 48,-65 83,-85 36,-20 72,-33 111,-43 39,-9 83,-13 130,-13 77,0 155,10 234,30l0 -133c0,-81 -16,-140 -48,-175 -31,-36 -90,-52 -175,-52 -69,0 -159,15 -270,42l-22 -90c42,-15 96,-28 161,-39 64,-11 116,-17 155,-17 114,0 197,26 247,76 50,50 76,133 76,248zm-124 517l0 -297c-72,-13 -140,-21 -209,-21 -171,0 -256,61 -256,183 0,109 83,165 251,165 79,0 151,-10 214,-30z"/>
   <path class="fil0" d="M13838 11076m486 23c-142,0 -258,-41 -349,-124 -91,-83 -137,-209 -137,-373 0,-172 46,-300 137,-379 91,-80 211,-120 358,-120 93,0 185,15 278,42l-45 229c-72,-22 -137,-33 -198,-33 -72,0 -125,20 -160,59 -35,41 -54,109 -54,203 0,98 19,167 54,206 35,40 90,60 166,60 59,0 135,-12 227,-36l24 218c-103,31 -203,48 -301,48z"/>
   <path class="fil0" d="M14687 11076m441 23c-151,0 -262,-39 -334,-117 -72,-77 -107,-205 -107,-380 0,-174 37,-302 112,-381 74,-79 187,-118 339,-118 157,0 271,39 343,114 72,78 107,205 107,383 0,175 -37,301 -110,380 -76,80 -193,119 -350,119zm-135 -497c0,175 48,264 143,264 96,0 144,-89 144,-264 0,-100 -11,-169 -33,-207 -24,-39 -60,-58 -109,-58 -50,0 -85,19 -109,58 -24,38 -36,107 -36,207z"/>
   <path class="fil0" d="M15726 11076m317 0l-317 0 0 -868c53,-24 127,-50 221,-74 93,-24 183,-35 274,-35 42,0 83,2 118,7 35,6 68,15 103,30 35,15 63,35 87,59 24,24 43,57 57,98 13,43 21,91 21,146l0 637 -318 0 0 -615c0,-90 -35,-135 -107,-135 -52,0 -98,10 -139,28l0 722z"/>
   <path class="fil0" d="M16841 11076m322 -958l164 644 167 -644 319 0 -299 958 -373 0 -300 -958 322 0z"/>
   <path class="fil0" d="M17853 11076m441 23c-151,0 -262,-39 -334,-117 -72,-77 -107,-205 -107,-380 0,-174 37,-302 112,-381 74,-79 187,-118 338,-118 157,0 272,39 344,114 72,78 107,205 107,383 0,175 -37,301 -111,380 -75,80 -192,119 -349,119zm-135 -497c0,175 48,264 142,264 97,0 145,-89 145,-264 0,-100 -11,-169 -34,-207 -24,-39 -59,-58 -109,-58 -50,0 -85,19 -109,58 -24,38 -35,107 -35,207z"/>
   <path class="fil0" d="M18836 11076m735 -912l-44 238c-33,-17 -76,-29 -126,-42 -53,-13 -98,-21 -133,-21 -66,0 -100,19 -100,58 0,16 8,33 25,48 24,20 66,42 125,62 46,21 78,34 94,41 24,11 52,28 84,50 62,42 94,102 94,179 0,214 -137,322 -410,322 -60,0 -122,-8 -189,-23 -65,-13 -116,-27 -155,-48l48 -227c127,44 229,67 301,67 65,0 96,-21 96,-63 0,-17 -7,-32 -22,-45 -17,-16 -54,-38 -109,-64l-85 -37c-39,-20 -63,-35 -74,-43 -35,-24 -59,-40 -70,-53 -41,-48 -61,-100 -61,-157 0,-203 131,-305 393,-305 113,0 218,20 318,63z"/>
  </g>
 </g>
</svg>
