<?xml version="1.0" encoding="UTF-8"?>
<!DOCTYPE svg PUBLIC "-//W3C//DTD SVG 1.1//EN" "http://www.w3.org/Graphics/SVG/1.1/DTD/svg11.dtd">
<!-- Creator: CorelDRAW X8 -->
<svg xmlns="http://www.w3.org/2000/svg" xml:space="preserve" width="210mm" height="210mm" version="1.1" style="shape-rendering:geometricPrecision; text-rendering:geometricPrecision; image-rendering:optimizeQuality; fill-rule:evenodd; clip-rule:evenodd"
viewBox="0 0 21000 21000"
 xmlns:xlink="http://www.w3.org/1999/xlink">
 <defs>
  <style type="text/css">
   <![CDATA[
    .fil0 {fill:#0032A1;fill-rule:nonzero}
   ]]>
  </style>
 </defs>
 <g id="Capa_x0020_1">
  <metadata id="CorelCorpID_0Corel-Layer"/>
  <g id="_2550790307856">
   <path class="fil0" d="M1341 11392m815 -1823l451 0 0 1763c-157,58 -360,86 -613,86 -435,0 -653,-226 -653,-677 0,-94 10,-182 33,-263 21,-81 55,-156 102,-227 47,-70 112,-127 198,-169 86,-39 185,-60 302,-60 65,0 125,5 180,18l0 -471zm0 1513l0 -729c-39,-8 -81,-13 -120,-13 -75,0 -135,36 -177,109 -42,76 -63,172 -63,295 0,237 84,354 248,354 34,0 70,-5 112,-16z"/>
   <path class="fil0" d="M2744 11392m1190 -859l0 791c-167,71 -362,107 -588,107 -402,0 -602,-138 -602,-414 0,-141 44,-247 135,-318 89,-70 206,-107 355,-107 96,0 182,11 252,32l0 -86c0,-65 -15,-112 -47,-138 -31,-24 -80,-37 -146,-37 -130,0 -250,18 -359,58l-73 -297c180,-71 359,-107 544,-107 352,0 529,172 529,516zm-760 474c0,99 62,148 185,148 49,0 93,-5 127,-18l0 -279c-39,-15 -81,-23 -125,-23 -55,0 -99,13 -133,41 -34,29 -52,73 -54,131z"/>
   <path class="fil0" d="M4152 11392m451 -984l0 984 -451 0 0 -1352 401 0 8 146c84,-112 201,-169 354,-169 42,0 92,8 146,21l-52 343c-65,-13 -125,-20 -185,-20 -86,0 -159,15 -221,47z"/>
   <path class="fil0" d="M5087 11392m1036 -1287l-62 336c-47,-23 -107,-41 -177,-60 -76,-18 -138,-28 -188,-28 -94,0 -141,26 -141,81 0,23 11,46 34,67 34,29 94,60 177,89 66,28 110,47 133,57 34,16 73,39 117,70 89,60 133,144 133,253 0,302 -192,453 -578,453 -83,0 -172,-10 -266,-31 -91,-18 -164,-39 -218,-68l67 -320c180,63 323,94 425,94 91,0 135,-29 135,-89 0,-23 -10,-44 -31,-62 -23,-24 -75,-55 -154,-91l-119 -53c-55,-28 -89,-49 -105,-59 -49,-34 -83,-58 -99,-76 -57,-68 -86,-141 -86,-221 0,-287 185,-430 555,-430 159,0 308,28 448,88z"/>
   <path class="fil0" d="M6229 11392m1191 -859l0 791c-167,71 -362,107 -589,107 -401,0 -602,-138 -602,-414 0,-141 45,-247 136,-318 88,-70 205,-107 354,-107 96,0 182,11 253,32l0 -86c0,-65 -16,-112 -47,-138 -32,-24 -81,-37 -146,-37 -130,0 -250,18 -360,58l-73 -297c180,-71 360,-107 545,-107 351,0 529,172 529,516zm-761 474c0,99 63,148 185,148 49,0 94,-5 128,-18l0 -279c-39,-15 -81,-23 -125,-23 -55,0 -99,13 -133,41 -34,29 -52,73 -55,131z"/>
   <path class="fil0" d="M7640 11392m719 -331l34 282c-91,54 -208,80 -349,80 -143,0 -245,-39 -307,-114 -65,-76 -97,-188 -97,-339l0 -1399 459 0 0 1376c0,93 44,140 135,140 37,0 78,-7 125,-26z"/>
   <path class="fil0" d="M8483 11392m790 -1352l448 0 0 1251c-224,80 -451,122 -678,122 -161,0 -297,-39 -403,-117 -105,-81 -157,-209 -157,-381l0 -875 451 0 0 849c0,123 60,191 180,201 54,0 109,-5 159,-18l0 -1032z"/>
   <path class="fil0" d="M9894 11392m816 -1823l450 0 0 1763c-156,58 -359,86 -612,86 -435,0 -654,-226 -654,-677 0,-94 11,-182 34,-263 21,-81 55,-156 102,-227 47,-70 112,-127 198,-169 86,-39 185,-60 302,-60 65,0 125,5 180,18l0 -471zm0 1513l0 -729c-39,-8 -81,-13 -120,-13 -76,0 -136,36 -177,109 -42,76 -63,172 -63,295 0,237 84,354 248,354 34,0 70,-5 112,-16z"/>
   <path class="fil0" d="M11355 11392m0 -422l458 0 0 422 -458 0 0 -422z"/>
   <path class="fil0" d="M11958 11392m685 31c-200,0 -364,-57 -492,-174 -128,-117 -193,-294 -193,-526 0,-243 65,-422 193,-534 128,-112 297,-170 505,-170 131,0 261,21 391,60l-62 323c-102,-31 -193,-47 -279,-47 -102,0 -177,29 -227,84 -49,57 -75,153 -75,286 0,138 26,235 75,289 50,58 128,86 235,86 83,0 190,-18 320,-52l34 308c-146,44 -287,67 -425,67z"/>
   <path class="fil0" d="M13140 11392m623 31c-214,0 -370,-54 -472,-164 -101,-109 -151,-289 -151,-536 0,-245 52,-425 159,-537 104,-112 263,-167 477,-167 221,0 383,55 484,162 102,109 151,289 151,539 0,248 -52,425 -156,537 -107,112 -271,166 -492,166zm-190 -700c0,247 67,372 200,372 136,0 203,-125 203,-372 0,-141 -15,-237 -47,-292 -33,-55 -83,-81 -153,-81 -71,0 -120,26 -154,81 -34,55 -49,151 -49,292z"/>
   <path class="fil0" d="M14590 11392m448 0l-448 0 0 -1214c235,-109 461,-164 683,-164 172,0 294,39 370,120 117,-81 265,-120 448,-120 333,0 500,159 500,479l0 899 -446 0 0 -862c0,-125 -49,-188 -148,-188 -60,0 -125,16 -193,45 5,34 8,70 8,106l0 899 -440 0 0 -862c0,-125 -52,-188 -157,-188 -60,0 -119,13 -177,39l0 1011z"/>
   <path class="fil0" d="M16777 11392m0 -422l459 0 0 422 -459 0 0 -422z"/>
   <path class="fil0" d="M17342 11392m1190 -859l0 791c-166,71 -362,107 -588,107 -402,0 -602,-138 -602,-414 0,-141 44,-247 135,-318 89,-70 206,-107 355,-107 96,0 182,11 252,32l0 -86c0,-65 -15,-112 -47,-138 -31,-24 -80,-37 -145,-37 -131,0 -251,18 -360,58l-73 -297c180,-71 360,-107 545,-107 351,0 528,172 528,516zm-760 474c0,99 62,148 185,148 49,0 93,-5 127,-18l0 -279c-39,-15 -80,-23 -125,-23 -54,0 -99,13 -133,41 -33,29 -52,73 -54,131z"/>
   <path class="fil0" d="M18750 11392m451 -984l0 984 -451 0 0 -1352 401 0 8 146c84,-112 201,-169 354,-169 42,0 92,8 146,21l-52 343c-65,-13 -125,-20 -185,-20 -86,0 -159,15 -221,47z"/>
  </g>
 </g>
</svg>
