<?xml version="1.0" encoding="UTF-8"?>
<!DOCTYPE svg PUBLIC "-//W3C//DTD SVG 1.1//EN" "http://www.w3.org/Graphics/SVG/1.1/DTD/svg11.dtd">
<!-- Creator: CorelDRAW X8 -->
<svg xmlns="http://www.w3.org/2000/svg" xml:space="preserve" width="210mm" height="210mm" version="1.1" style="shape-rendering:geometricPrecision; text-rendering:geometricPrecision; image-rendering:optimizeQuality; fill-rule:evenodd; clip-rule:evenodd"
viewBox="0 0 21000 21000"
 xmlns:xlink="http://www.w3.org/1999/xlink">
 <defs>
  <style type="text/css">
   <![CDATA[
    .fil0 {fill:#0032A1;fill-rule:nonzero}
   ]]>
  </style>
 </defs>
 <g id="Capa_x0020_1">
  <metadata id="CorelCorpID_0Corel-Layer"/>
  <g id="_2550668081392">
   <path class="fil0" d="M1376 11440m200 -162l861 0 -20 162 -1041 0 225 -1831 1011 0 -22 162 -830 0 -80 644 787 0 -19 162 -787 0 -85 701z"/>
   <path class="fil0" d="M2646 11440m0 -57l63 -154c118,63 230,93 334,93 206,0 321,-77 340,-230 8,-55 -3,-101 -30,-143 -30,-41 -69,-71 -115,-90 -49,-19 -102,-41 -156,-66 -58,-24 -110,-49 -157,-74 -46,-24 -85,-60 -112,-112 -27,-49 -36,-110 -27,-181 13,-126 68,-225 159,-293 90,-69 211,-102 361,-102 124,0 228,28 313,80l-49 148c-85,-49 -179,-74 -277,-74 -195,0 -305,74 -324,222 -8,60 11,109 52,151 41,41 96,71 159,95 63,25 129,53 192,80 63,30 113,71 154,123 41,55 54,124 46,203 -16,129 -71,233 -167,307 -96,74 -227,112 -389,112 -162,0 -285,-32 -370,-95z"/>
   <path class="fil0" d="M3820 11440m644 -151l11 135c-85,30 -181,43 -288,43 -134,0 -219,-27 -257,-79 -39,-55 -50,-151 -33,-288l109 -893 -186 0 16 -143 187 0 44 -348 172 -25 -46 373 446 0 -41 143 -425 0 -115 921c0,35 0,68 0,98 -2,30 11,52 36,72 25,19 66,27 123,27 80,0 162,-11 247,-36z"/>
   <path class="fil0" d="M4736 11440m910 -230l121 -979c-85,-30 -170,-43 -252,-43 -313,0 -494,200 -543,597 -22,181 -6,315 52,403 58,90 159,134 304,134 99,0 206,-38 318,-112zm173 241l-151 0 -14 -115c-117,90 -249,137 -389,137 -373,0 -529,-236 -468,-704 16,-135 46,-253 93,-351 46,-96 104,-173 172,-225 69,-52 140,-90 217,-115 77,-25 162,-36 252,-36 134,0 277,25 422,74l-134 1088c-6,99 -6,181 0,247z"/>
   <path class="fil0" d="M6061 11440m0 0l156 -1274c241,-91 441,-137 600,-137 165,0 274,38 332,117 156,-79 326,-117 513,-117 150,0 257,32 326,101 65,69 87,186 65,351l-115 959 -167 0 113 -915c13,-132 0,-222 -47,-269 -47,-46 -129,-71 -247,-71 -137,0 -266,27 -386,82 14,63 16,134 5,214l-115 959 -164 0 112 -915c14,-129 0,-217 -46,-266 -47,-49 -129,-74 -247,-74 -151,0 -277,30 -378,93l-143 1162 -167 0z"/>
   <path class="fil0" d="M8328 11440m529 38c-205,0 -345,-54 -424,-167 -80,-112 -105,-296 -72,-556 58,-482 288,-724 688,-724 195,0 335,58 414,170 80,113 104,296 74,551 -30,252 -104,436 -216,551 -113,118 -269,175 -464,175zm168 -1293c-126,0 -233,41 -318,123 -85,82 -140,230 -167,447 -25,203 -11,348 46,436 55,87 154,131 296,131 271,0 430,-189 477,-567 27,-222 14,-370 -44,-450 -57,-79 -156,-120 -290,-120z"/>
   <path class="fil0" d="M9634 11440m0 -57l63 -154c118,63 230,93 334,93 206,0 321,-77 340,-230 8,-55 -2,-101 -30,-143 -30,-41 -68,-71 -115,-90 -49,-19 -101,-41 -156,-66 -58,-24 -110,-49 -156,-74 -47,-24 -85,-60 -113,-112 -27,-49 -35,-110 -27,-181 13,-126 68,-225 159,-293 90,-69 211,-102 362,-102 123,0 227,28 312,80l-49 148c-85,-49 -179,-74 -277,-74 -195,0 -304,74 -324,222 -8,60 11,109 52,151 42,41 96,71 159,95 63,25 129,53 192,80 63,30 113,71 154,123 41,55 55,124 46,203 -16,129 -71,233 -167,307 -96,74 -227,112 -389,112 -162,0 -285,-32 -370,-95z"/>
   <path class="fil0" d="M11172 11440m1085 -1335l-55 146c-82,-44 -183,-66 -304,-66 -123,0 -235,46 -331,137 -96,90 -157,233 -181,433 -22,192 2,334 74,430 71,96 178,143 320,143 113,0 220,-19 327,-55l8 137c-129,47 -250,68 -362,68 -184,0 -332,-60 -439,-178 -104,-120 -142,-301 -112,-545 30,-239 112,-419 241,-543 129,-123 285,-183 463,-183 143,0 261,24 351,76z"/>
   <path class="fil0" d="M12332 11440m529 38c-205,0 -345,-54 -425,-167 -79,-112 -104,-296 -71,-556 58,-482 288,-724 688,-724 195,0 334,58 414,170 79,113 104,296 74,551 -30,252 -104,436 -217,551 -112,118 -268,175 -463,175zm167 -1293c-126,0 -233,41 -318,123 -85,82 -139,230 -167,447 -24,203 -11,348 47,436 55,87 153,131 296,131 271,0 430,-189 477,-567 27,-222 13,-370 -44,-450 -58,-79 -156,-120 -291,-120z"/>
   <path class="fil0" d="M13717 11440m0 0l156 -1274c242,-91 447,-137 614,-137 151,0 258,32 327,101 65,69 87,186 65,351l-115 959 -164 0 112 -915c14,-129 0,-217 -46,-266 -47,-49 -129,-74 -247,-74 -159,0 -291,30 -392,93l-143 1162 -167 0z"/>
   <path class="fil0" d="M15447 11440m828 -1376l183 0c94,165 124,373 91,628 -19,145 -55,274 -102,384 -52,117 -128,213 -233,287 -104,77 -224,115 -361,115 -157,0 -263,-32 -324,-104 -63,-68 -82,-181 -63,-337l118 -973 170 0 -107 880c-8,71 -11,134 -8,192 0,57 22,104 63,140 41,35 104,54 192,54 140,0 252,-57 331,-169 80,-118 132,-261 154,-434 16,-123 14,-249 -6,-375 -19,-123 -52,-219 -98,-288z"/>
   <path class="fil0" d="M16722 11440m529 38c-205,0 -345,-54 -424,-167 -80,-112 -105,-296 -72,-556 58,-482 288,-724 688,-724 195,0 335,58 414,170 80,113 104,296 74,551 -30,252 -104,436 -216,551 -113,118 -269,175 -464,175zm168 -1293c-127,0 -233,41 -318,123 -85,82 -140,230 -168,447 -24,203 -11,348 47,436 55,87 154,131 296,131 271,0 430,-189 477,-567 27,-222 14,-370 -44,-450 -57,-79 -156,-120 -290,-120z"/>
   <path class="fil0" d="M18028 11440m0 -57l63 -154c118,63 230,93 334,93 206,0 321,-77 340,-230 8,-55 -3,-101 -30,-143 -30,-41 -68,-71 -115,-90 -49,-19 -101,-41 -156,-66 -58,-24 -110,-49 -156,-74 -47,-24 -85,-60 -113,-112 -27,-49 -35,-110 -27,-181 13,-126 68,-225 159,-293 90,-69 211,-102 361,-102 124,0 228,28 313,80l-49 148c-85,-49 -179,-74 -277,-74 -195,0 -304,74 -324,222 -8,60 11,109 52,151 42,41 96,71 159,95 63,25 129,53 192,80 63,30 113,71 154,123 41,55 55,124 46,203 -16,129 -71,233 -167,307 -96,74 -227,112 -389,112 -162,0 -285,-32 -370,-95z"/>
   <path class="fil0" d="M19158 11440m263 -1918l203 0 -208 1449 -146 0 151 -1449zm-27 1918l-236 0 27 -244 236 0 -27 244z"/>
  </g>
 </g>
</svg>
