<?xml version="1.0" encoding="UTF-8"?>
<!DOCTYPE svg PUBLIC "-//W3C//DTD SVG 1.1//EN" "http://www.w3.org/Graphics/SVG/1.1/DTD/svg11.dtd">
<!-- Creator: CorelDRAW X8 -->
<svg xmlns="http://www.w3.org/2000/svg" xml:space="preserve" width="210mm" height="210mm" version="1.1" style="shape-rendering:geometricPrecision; text-rendering:geometricPrecision; image-rendering:optimizeQuality; fill-rule:evenodd; clip-rule:evenodd"
viewBox="0 0 21000 21000"
 xmlns:xlink="http://www.w3.org/1999/xlink">
 <defs>
  <style type="text/css">
   <![CDATA[
    .fil0 {fill:#0032A1;fill-rule:nonzero}
   ]]>
  </style>
 </defs>
 <g id="Capa_x0020_1">
  <metadata id="CorelCorpID_0Corel-Layer"/>
  <path class="fil0" d="M1195 11080c-11,81 20,145 93,193 73,49 179,79 319,91l-42 179c-175,-6 -319,-51 -430,-135 -111,-82 -159,-190 -145,-323 5,-56 20,-106 47,-150 26,-44 57,-82 92,-113 35,-31 69,-62 104,-93 35,-31 66,-69 92,-115 27,-46 42,-97 47,-155l4 -137 180 0c4,92 6,147 4,168 -4,58 -20,113 -45,162 -26,50 -55,92 -89,127 -33,35 -66,68 -98,99 -33,31 -62,64 -88,98 -25,34 -40,69 -45,104zm402 -939l-255 0 0 -256 255 0 0 256zm275 960l0 -1535c122,-23 260,-35 412,-35 142,0 261,16 356,49 181,60 272,200 272,419 0,186 -65,317 -193,393 -115,68 -256,102 -424,102 -76,0 -148,-7 -216,-21l0 628 -207 0zm207 -1395l0 609c70,12 138,19 205,19 279,0 418,-108 418,-324 0,-136 -43,-225 -130,-265 -70,-37 -166,-56 -288,-56 -89,0 -157,6 -205,17zm1512 1428c-181,0 -313,-47 -395,-142 -83,-95 -124,-252 -124,-472 0,-213 45,-368 134,-467 89,-98 221,-147 397,-147 175,0 305,48 389,145 85,97 127,252 127,466 0,411 -176,617 -528,617zm7 -1070c-99,0 -178,33 -235,100 -57,67 -86,185 -86,356 0,161 26,277 78,349 52,71 132,107 241,107 100,0 179,-38 235,-113 55,-75 83,-190 83,-343 0,-177 -26,-296 -79,-358 -52,-66 -132,-98 -237,-98zm1389 -133l-26 175c-40,-10 -82,-14 -125,-14 -118,0 -204,23 -256,70l0 939 -196 0 0 -1167 170 0 16 111c78,-84 181,-125 310,-125 32,0 68,4 107,11zm572 591c8,-412 196,-619 565,-619 154,0 300,33 438,98l0 1610 -196 -19 0 -502c-79,35 -162,53 -249,53 -104,0 -193,-17 -268,-52 -76,-35 -133,-83 -174,-143 -40,-61 -69,-126 -88,-196 -19,-69 -28,-146 -28,-230zm205 5c0,127 27,234 81,321 56,85 145,128 268,128 99,0 182,-17 249,-49l0 -821c-72,-27 -152,-40 -240,-40 -119,0 -209,41 -268,122 -58,82 -89,195 -90,339zm1844 -593l196 0 0 1114c-158,57 -323,86 -493,86 -298,0 -447,-140 -447,-419l0 -781 195 0 0 770c0,97 26,167 77,208 51,41 130,61 235,61 75,0 154,-13 237,-39l0 -1000zm1010 1200c-371,0 -556,-206 -556,-619 0,-167 44,-311 133,-430 88,-118 218,-177 388,-177 155,0 273,38 353,115 79,77 119,186 119,327 0,45 -6,105 -18,179l-768 0c0,152 35,263 105,334 70,70 176,106 319,106 110,0 209,-20 297,-58l26 160c-107,42 -240,63 -398,63zm-28 -1072c-57,0 -108,12 -151,37 -43,25 -76,55 -99,90 -22,36 -39,70 -50,103 -11,32 -16,60 -16,84l579 0c2,-7 2,-21 2,-42 0,-87 -23,-154 -69,-202 -47,-47 -112,-70 -196,-70zm137 -715l112 170 -400 242 -84 -128 372 -284zm11078 610c11,-81 -20,-145 -93,-193 -73,-48 -179,-79 -319,-91l42 -179c175,6 319,51 431,135 110,82 158,190 144,323 -5,56 -20,106 -47,150 -26,44 -57,82 -92,113 -35,31 -69,62 -104,93 -35,31 -66,70 -92,115 -27,46 -42,98 -47,155l-4 137 -180 0c-4,-91 -6,-147 -4,-167 4,-59 20,-114 45,-163 26,-50 55,-92 89,-127 33,-35 66,-68 98,-99 33,-31 62,-63 88,-97 25,-35 40,-69 45,-105zm-133 1144l-255 0 0 -256 255 0 0 256zm-8900 -560l-667 0c0,105 24,181 72,227 48,45 119,68 214,68 136,0 251,-19 344,-58l30 281c-155,49 -299,73 -432,73 -415,0 -622,-221 -622,-663 0,-168 48,-309 145,-424 94,-113 238,-170 432,-170 169,0 297,43 382,128 85,86 128,202 128,349 0,50 -9,113 -26,189zm-477 -400c-60,0 -105,19 -135,59 -29,39 -44,87 -44,143l344 0c0,-135 -55,-202 -165,-202zm1326 665l31 251c-83,48 -187,72 -312,72 -127,0 -219,-33 -276,-101 -56,-67 -85,-169 -85,-304l0 -1249 410 0 0 1229c0,83 40,125 121,125 32,0 69,-8 111,-23zm1152 -265l-668 0c0,105 24,181 72,227 48,45 120,68 214,68 137,0 251,-19 345,-58l30 281c-155,49 -300,73 -433,73 -414,0 -621,-221 -621,-663 0,-168 48,-309 144,-424 95,-113 239,-170 433,-170 169,0 296,43 381,128 86,86 128,202 128,349 0,50 -8,113 -25,189zm-477 -400c-61,0 -106,19 -135,59 -30,39 -44,87 -44,143l344 0c0,-135 -55,-202 -165,-202zm602 1163c0,-118 73,-214 219,-289 -40,-43 -60,-94 -60,-153 0,-58 19,-113 58,-168 -118,-88 -177,-206 -177,-353 0,-143 42,-256 127,-340 84,-84 206,-126 366,-128l209 9c148,-3 290,-17 426,-41l28 228c-91,21 -171,32 -240,32 50,73 75,153 75,240 0,139 -42,249 -126,328 -83,79 -205,118 -365,118 -8,0 -35,-1 -81,-4 -5,11 -7,23 -7,37 0,14 4,30 11,49l279 0c131,0 234,30 310,89 76,60 114,141 114,243 0,138 -57,248 -170,328 -115,83 -268,124 -458,124 -171,0 -303,-31 -397,-91 -94,-61 -141,-147 -141,-258zm668 -142l-223 0c-55,17 -82,54 -82,111 0,58 69,87 205,87 152,0 228,-42 228,-126 0,-25 -9,-43 -28,-55 -19,-11 -52,-17 -100,-17zm-128 -1005c-45,0 -76,15 -93,44 -17,30 -26,77 -26,142 0,102 40,154 119,154 82,0 123,-52 123,-154 0,-64 -9,-111 -26,-141 -18,-30 -50,-45 -97,-45zm754 -263l409 0 0 1207 -409 0 0 -1207zm409 -123l-409 0 0 -386 409 0 0 386zm617 451l0 879 -403 0 0 -1207 358 0 7 130c75,-100 180,-151 317,-151 37,0 80,6 130,19l-46 307c-58,-13 -113,-19 -166,-19 -76,0 -142,14 -197,42zm928 879l-400 0 0 -1093c66,-31 159,-62 279,-93 116,-29 231,-44 344,-44 54,0 104,3 148,9 44,6 88,19 131,37 44,19 80,44 110,75 29,31 53,72 71,124 17,52 26,113 26,183l0 802 -400 0 0 -774c0,-114 -45,-170 -135,-170 -65,0 -123,12 -174,35l0 909zm1440 28c-191,0 -331,-49 -421,-146 -90,-98 -135,-258 -135,-479 0,-219 47,-379 141,-479 93,-100 236,-150 426,-150 197,0 341,49 432,146 91,97 136,257 136,480 0,220 -47,380 -141,479 -94,100 -240,149 -438,149zm-170 -625c0,221 60,332 179,332 121,0 182,-111 182,-332 0,-126 -15,-213 -43,-261 -29,-48 -75,-72 -137,-72 -62,0 -107,24 -137,72 -29,48 -44,135 -44,261zm1787 -552l-56 300c-42,-20 -95,-38 -159,-53 -68,-17 -124,-26 -167,-26 -84,0 -126,24 -126,72 0,22 10,42 31,61 31,26 83,53 158,79 59,25 98,42 118,51 30,14 65,35 105,63 79,53 119,128 119,225 0,270 -172,405 -517,405 -74,0 -153,-9 -237,-28 -81,-15 -146,-35 -195,-60l60 -286c161,56 288,83 379,83 81,0 121,-26 121,-79 0,-20 -9,-38 -28,-55 -21,-22 -67,-49 -137,-82l-107 -46c-48,-27 -79,-45 -93,-54 -45,-29 -74,-52 -88,-67 -51,-61 -77,-127 -77,-198 0,-256 165,-384 495,-384 142,0 275,26 401,79z"/>
 </g>
</svg>
